<?xml version="1.0" encoding="UTF-8" standalone="no"?>
<!-- Created with Inkscape (http://www.inkscape.org/) -->

<svg
   version="1.1"
   id="svg1"
   width="580"
   height="609"
   viewBox="0 0 580 609"
   xmlns="http://www.w3.org/2000/svg"
   xmlns:svg="http://www.w3.org/2000/svg">
  <defs
     id="defs1">
    <filter
       style="color-interpolation-filters:sRGB"
       id="filter35"
       x="0"
       y="0"
       width="1"
       height="1">
      <feColorMatrix
         values="0.735562"
         type="saturate"
         result="colormatrix1"
         id="feColorMatrix33" />
      <feColorMatrix
         values="1 0 0 0 0 0 1 0 0 0 0 0 1 0 0 -1 0.5 -5.59633 0.0917431 0 "
         in="SourceGraphic"
         result="colormatrix2"
         id="feColorMatrix34" />
      <feFlood
         flood-color="rgb(255,255,255)"
         flood-opacity="1"
         result="flood"
         id="feFlood34" />
      <feComposite
         in2="colormatrix2"
         operator="out"
         result="composite1"
         id="feComposite34" />
      <feMerge
         result="merge"
         id="feMerge35">
        <feMergeNode
           in="colormatrix1"
           id="feMergeNode34" />
        <feMergeNode
           in="composite1"
           id="feMergeNode35" />
      </feMerge>
      <feComposite
         in="merge"
         in2="SourceGraphic"
         operator="in"
         result="fbSourceGraphic"
         id="feComposite35" />
      <feColorMatrix
         result="fbSourceGraphicAlpha"
         in="fbSourceGraphic"
         values="0 0 0 -1 0 0 0 0 -1 0 0 0 0 -1 0 0 0 0 1 0"
         id="feColorMatrix35" />
      <feColorMatrix
         id="feColorMatrix36"
         values="0.735562"
         type="saturate"
         result="colormatrix1"
         in="fbSourceGraphic" />
      <feColorMatrix
         id="feColorMatrix37"
         values="1 0 0 0 0 0 1 0 0 0 0 0 1 0 0 -1 0.5 -5.59633 0.0917431 0 "
         in="fbSourceGraphic"
         result="colormatrix2" />
      <feFlood
         id="feFlood37"
         flood-color="rgb(255,255,255)"
         flood-opacity="1"
         result="flood" />
      <feComposite
         id="feComposite37"
         in2="colormatrix2"
         operator="out"
         result="composite1" />
      <feMerge
         id="feMerge37"
         result="merge">
        <feMergeNode
           id="feMergeNode37"
           in="colormatrix1" />
        <feMergeNode
           id="feMergeNode38"
           in="composite1" />
      </feMerge>
      <feComposite
         id="feComposite38"
         in="merge"
         in2="fbSourceGraphic"
         operator="in"
         result="composite2" />
    </filter>
  </defs>
  <g
     id="g1">
    <path
       style="fill:#000000;filter:url(#filter35)"
       d="m 171.92045,362.96463 c -11.61731,-1.90276 -22.77681,-12.75246 -24.06805,-23.39986 -0.33685,-2.77766 -0.1097,-2.96078 5.1476,-4.14967 3.025,-0.68407 5.53135,-1.16982 5.56967,-1.07944 0.0383,0.0904 0.62111,2.0843 1.2951,4.43092 3.71838,12.94613 19.16852,17.9664 29.23206,9.49849 6.54834,-5.51007 8.60975,-14.99957 4.85652,-22.35652 -2.40142,-4.70717 -7.78832,-8.39838 -18.75423,-12.85077 C 158.50526,306.27972 152,299.12403 152,287.53906 c 0,-15.11179 10.63058,-24.39393 28.05366,-24.49517 6.17958,-0.0359 8.49919,0.42729 12.75157,2.54634 4.86776,2.42571 11.20436,8.59269 11.18707,10.88761 -0.004,0.56219 -1.83056,2.06324 -4.05849,3.33568 l -4.05079,2.31352 -3.88483,-3.50971 c -4.40085,-3.9759 -10.65464,-6.05085 -15.33187,-5.08697 -5.03692,1.03801 -10.67436,5.24463 -12.32601,9.19758 -3.48568,8.34241 1.62374,14.78554 15.95592,20.12087 13.6236,5.07155 20.02306,9.64718 24.18348,17.29124 3.8301,7.03716 4.11422,17.72433 0.6742,25.35995 -2.62148,5.81876 -8.15106,11.89324 -13.20042,14.50125 -3.12909,1.61617 -5.5382,2.22747 -13.45349,3.41372 -1.1,0.16485 -4.0608,-0.0378 -6.57955,-0.45034 z m 186.10865,-2.92789 c -2.31849,-2.92733 -3.08689,-4.66182 -2.45267,-5.53633 0.50796,-0.70041 2.08785,-2.78703 3.51085,-4.63694 C 365.31084,341.77282 369,328.42573 369,314 c 0,-15.46732 -4.10305,-29.42731 -10.92802,-37.18089 -4.1553,-4.72066 -4.1977,-4.15539 0.77866,-10.37922 l 2.35064,-2.93989 4.34362,4.78518 c 4.89671,5.3945 9.47433,14.39588 12.12496,23.84241 2.54158,9.05792 2.53516,34.70846 -0.011,43.78716 -2.53138,9.02609 -7.44502,18.65553 -12.19859,23.90602 l -4.05495,4.47883 z m 56.82944,2.91904 C 405.23096,361.38156 398.23182,356.17484 393.89163,347.3583 391.85278,343.21664 391.5,341.02492 391.5,332.5 c 0,-11.66149 1.31501,-16.78881 5.82392,-22.70795 4.95464,-6.50428 10.43721,-9.08556 20.40919,-9.60895 9.50506,-0.49889 15.30588,1.15621 20.72338,5.91284 4.22363,3.70839 8.22776,12.79177 9.10472,20.65406 l 0.69712,6.25 h -23.26001 -23.26 l 0.58397,3.5986 c 1.59722,9.84251 8.93309,16.68711 17.88481,16.68711 6.46929,0 10.57924,-1.97461 14.95282,-7.18404 l 3.28329,-3.91077 4.81962,2.44228 4.81962,2.44229 -2.0261,2.84539 c -1.11435,1.56497 -3.61398,4.23957 -5.55472,5.94357 -5.72673,5.02813 -7.88,5.88376 -19.00163,7.55054 -1.1,0.16485 -4.08866,-0.0418 -6.64146,-0.45919 z m 21.5143,-38.75004 c 0.88076,-1.42509 -3.05421,-8.80994 -5.87776,-11.03095 -8.05135,-6.33319 -19.98719,-4.23338 -25.08496,4.41307 -4.41263,7.48435 -4.54932,7.41214 14.03086,7.41214 9.04254,0 16.66188,-0.35742 16.93186,-0.79426 z M 220,331 v -30 h 5.5 5.5 v 3.68709 3.68709 l 2.75,-2.57293 C 238.03093,301.79597 242.44746,300 248.01608,300 c 5.97637,0 8.13923,0.95107 13.23043,5.81778 l 3.74652,3.58131 3.25348,-3.08759 c 5.45257,-5.17454 9.2305,-6.56674 16.67783,-6.14593 8.15018,0.46052 12.39844,3.13932 15.45012,9.74228 1.93335,4.18324 2.15191,6.66246 2.4545,27.84215 l 0.33217,23.25 h -5.49463 -5.49463 l -0.34364,-21.25 c -0.36507,-22.57529 -1.09728,-26.21807 -5.77284,-28.72036 -2.7638,-1.47914 -8.69388,-1.26794 -11.9702,0.42631 -5.61524,2.90375 -6.55042,6.86894 -6.9089,29.29405 L 266.85258,361 H 261.42629 256 V 342.1815 C 256,315.73886 254.0071,310 244.82455,310 c -5.46088,0 -8.70796,1.87669 -11.15476,6.44706 -1.98371,3.70537 -2.19755,5.78953 -2.4935,24.30294 L 230.85258,361 H 225.42629 220 Z m 102,13.18871 v -16.8113 l 5.25,0.0644 5.25,0.0644 0.27418,16.74689 L 333.04836,361 H 327.52418 322 Z m 0.33677,-64.66538 c -2.90888,-2.03746 -3.69332,-5.93315 -1.89497,-9.41078 2.50377,-4.84176 8.14688,-5.61478 12.10365,-1.658 2.9997,2.99969 3.13134,6.41533 0.38197,9.91059 -2.38544,3.03259 -7.16787,3.5556 -10.59065,1.15819 z"
       id="path1" />
  </g>
</svg>
